<?xml version="1.0" standalone="no"?><!DOCTYPE svg PUBLIC "-//W3C//DTD SVG 1.1//EN" "http://www.w3.org/Graphics/SVG/1.1/DTD/svg11.dtd"><svg t="1774922577340" class="icon" viewBox="0 0 1024 1024" version="1.1" xmlns="http://www.w3.org/2000/svg" p-id="10651" xmlns:xlink="http://www.w3.org/1999/xlink" width="256" height="256"><path d="M654.95586133 324.33402311H91.98705778a62.73979733 62.73979733 0 0 1-62.652416-62.652416V158.45512533c0-34.54475378 28.10766222-62.652416 62.652416-62.652416h562.99793067c34.54475378 0 62.652416 28.10766222 62.652416 62.652416v103.19735467a62.76892445 62.76892445 0 0 1-62.68154312 62.68154311zM91.98705778 117.64804267c-22.51525689 0-40.80708267 18.29182578-40.80708267 40.80708266v103.19735467c0 22.51525689 18.29182578 40.80708267 40.80708267 40.80708267h562.99793067c22.51525689 0 40.80708267-18.29182578 40.80708266-40.80708267V158.45512533c0-22.51525689-18.29182578-40.80708267-40.80708266-40.80708266H91.98705778z" fill="#1296db" p-id="10652"></path><path d="M122.39576178 189.06771911h42.03042133v42.03042134H122.39576178zM200.835072 189.06771911h42.03042133v42.03042134H200.835072zM279.27438222 189.06771911h42.03042133v42.03042134H279.27438222zM558.45774222 231.06901333h-152.65518933a21.00064711 21.00064711 0 0 1 0-42.00129422h152.65518933a21.00064711 21.00064711 0 0 1 0 42.00129422z" fill="#008CFF" p-id="10653"></path><path d="M654.95586133 626.26565689H91.98705778a62.73979733 62.73979733 0 0 1-62.652416-62.652416v-103.19735467c0-34.54475378 28.10766222-62.652416 62.652416-62.652416h562.99793067c34.54475378 0 62.652416 28.10766222 62.652416 62.652416v103.19735467a62.73979733 62.73979733 0 0 1-62.68154312 62.652416zM91.98705778 419.57967645c-22.51525689 0-40.80708267 18.29182578-40.80708267 40.80708266v103.19735467c0 22.51525689 18.29182578 40.80708267 40.80708267 40.80708267h562.99793067c22.51525689 0 40.80708267-18.29182578 40.80708266-40.80708267v-103.19735467c0-22.51525689-18.29182578-40.80708267-40.80708266-40.80708266H91.98705778z" fill="#1296db" p-id="10654"></path><path d="M654.89760711 454.56133689H91.89967645a5.767168 5.767168 0 0 0-5.70891378 5.88367644v103.10997334c0 3.11660089 2.56318578 5.88367645 5.70891378 5.88367644h562.99793066a6.05843911 6.05843911 0 0 0 5.88367644-5.88367644v-103.10997334a5.82542222 5.82542222 0 0 0-5.88367644-5.88367644zM164.48443733 533.05890133H122.39576178v-42.08867555h42.08867555v42.08867555z m78.32280178 0H200.89332622v-42.08867555h41.91391289v42.08867555z m78.46843734 0h-42.08867556v-42.08867555h42.08867556v42.08867555z m237.12381155 0h-152.567808a20.97152 20.97152 0 0 1-20.94239289-21.14628266c0-11.59259022 9.37892978-20.94239289 20.94239289-20.94239289h152.567808a21.05890133 21.05890133 0 0 1 0 42.08867555z" fill="#1AC678" p-id="10655"></path><path d="M654.95586133 928.19729067H91.98705778a62.73979733 62.73979733 0 0 1-62.652416-62.652416v-103.19735467c0-34.54475378 28.10766222-62.652416 62.652416-62.652416h562.99793067c34.54475378 0 62.652416 28.10766222 62.652416 62.652416v103.19735467a62.73979733 62.73979733 0 0 1-62.68154312 62.652416zM91.98705778 721.51131022c-22.51525689 0-40.80708267 18.29182578-40.80708267 40.80708267v103.19735466c0 22.51525689 18.29182578 40.80708267 40.80708267 40.80708267h562.99793067c22.51525689 0 40.80708267-18.29182578 40.80708266-40.80708267v-103.19735466c0-22.51525689-18.29182578-40.80708267-40.80708266-40.80708267H91.98705778z" fill="#1296db" p-id="10656"></path><path d="M122.39576178 792.93098667h42.03042133v42.03042133H122.39576178zM200.835072 792.93098667h42.03042133v42.03042133H200.835072zM279.27438222 792.93098667h42.03042133v42.03042133H279.27438222zM558.45774222 834.93228089h-152.65518933a21.00064711 21.00064711 0 0 1 0-42.00129422h152.65518933a21.00064711 21.00064711 0 0 1 0 42.00129422z" fill="#008CFF" p-id="10657"></path><path d="M933.003264 928.19729067h-96.58550045a61.74947555 61.74947555 0 0 1-61.69122133-61.69122134V290.31355733a10.92266667 10.92266667 0 0 1 21.84533333 0v576.22163912a39.90414222 39.90414222 0 0 0 39.845888 39.845888h96.58550045a39.90414222 39.90414222 0 0 0 39.845888-39.845888V320.48924445a19.31127467 19.31127467 0 0 0-19.28214755-19.28214756 10.92266667 10.92266667 0 0 1 0-21.84533334c22.66089245 0 41.12748089 18.43746133 41.12748088 41.1274809v546.01682488a61.74947555 61.74947555 0 0 1-61.69122133 61.69122134z" fill="#1296db" p-id="10658"></path><path d="M927.70212978 663.60661333h-20.06857956a12.26251378 12.26251378 0 0 0-12.26251377 12.26251378v154.86884978c0 6.75748978 5.47589689 12.26251378 12.26251377 12.26251378h20.06857956a12.26251378 12.26251378 0 0 0 12.26251377-12.26251378v-154.86884978a12.29164089 12.29164089 0 0 0-12.26251377-12.26251378zM861.81660445 734.06509511h-20.06857956a12.26251378 12.26251378 0 0 0-12.26251378 12.26251378v84.410368c0 6.75748978 5.47589689 12.26251378 12.26251378 12.26251378h20.06857956a12.26251378 12.26251378 0 0 0 12.26251377-12.26251378v-84.410368a12.23338667 12.23338667 0 0 0-12.26251377-12.26251378z" fill="#1296db" p-id="10659"></path><path d="M840.11690667 487.41671822a7.28177778 7.28177778 0 0 1-7.28177778-7.28177777V183.94134755l-17.53452089 34.66126223a7.28177778 7.28177778 0 1 1-12.99069155-6.58272711l31.31164444-61.95336534a7.28177778 7.28177778 0 0 1 13.77712356 3.29136356v326.77705956a7.28177778 7.28177778 0 0 1-7.28177778 7.28177777z" fill="#00CFFF" p-id="10660"></path><path d="M889.83688533 540.28242489a7.28177778 7.28177778 0 0 1-7.28177778-7.28177778V206.25271467a7.28177778 7.28177778 0 0 1 14.56355556 0v296.19359288l17.53452089-34.66126222a7.28177778 7.28177778 0 1 1 12.99069155 6.58272712l-31.31164444 61.92423822a7.340032 7.340032 0 0 1-6.49534578 3.99041422z" fill="#00CFFF" p-id="10661"></path></svg>